# xmcd
#
# Track frame offsets:
#	150
#	15731
#	28918
#	45084
#	58465
#	71699
#	90880
#	106278
#	123831
#	141526
#	156189
#	169396
#	185501
#	202395
#	217845
#	258951
#
# Disc length: 3656 seconds
#
# Revision: 1
# Processed by: cddbd v1.5.2PL0 Copyright (c) Steve Scherf et al.
# Submitted via: audiograbber 1.83.01
#
DISCID=e80e4610
DTITLE=Tri Yann - Rummadoù
DYEAR=2010
DGENRE=Celtic
TTITLE0=Na I ri o
TTITLE1=Ar Vikinged
TTITLE2=Le retour de la croisade
TTITLE3=Bosenn Langolen
TTITLE4=Naïk ar Bihan, fille follette
TTITLE5=Lamentations sur Saint-Aubin-du-Cormier
TTITLE6=Pour faire de bonnes crespes
TTITLE7=Hañvezh ar Bonedoù ruz
TTITLE8=Complainte de Marion du Faouët
TTITLE9=The Eyes Of my Bonnie Mary
TTITLE10=Chanson du baleinier François Le Billant
TTITLE11=Le prisonnier de 39-45
TTITLE12=L'exilé des sixties
TTITLE13=Adieu Kerblouze
TTITLE14=Glen glas
TTITLE15=Bonus
EXTD=
EXTT0=
EXTT1=
EXTT2=
EXTT3=
EXTT4=
EXTT5=
EXTT6=
EXTT7=
EXTT8=
EXTT9=
EXTT10=
EXTT11=
EXTT12=
EXTT13=
EXTT14=
EXTT15=
PLAYORDER=
